<svg width="112" height="112" viewBox="0 0 112 112" fill="none" xmlns="http://www.w3.org/2000/svg">
<path d="M55.9465 111.184C86.2028 111.184 111.176 86.2109 111.176 55.9546C111.176 25.7516 86.1495 0.778076 55.8931 0.778076C25.6902 0.778076 0.77002 25.7516 0.77002 55.9546C0.77002 86.2109 25.7435 111.184 55.9465 111.184ZM33.1609 69.6153V50.6183C33.1609 43.6279 34.0146 37.5446 34.9752 33.329C36.2025 28.0995 39.4042 24.631 44.6871 23.9906C46.5548 23.7238 50.8237 23.4036 55.9465 23.4036C61.0159 23.4036 65.2849 23.7238 67.1526 23.9906C72.4354 24.631 75.6371 28.0995 76.8645 33.329C77.825 37.5446 78.6788 43.6279 78.6788 50.6183V69.6153C78.6788 74.8981 75.7972 77.7263 70.0341 77.9398L75.5304 86.7979C76.3308 88.0786 75.6371 89.466 74.3031 89.466H72.8089C71.9552 89.466 71.4749 89.1992 71.1014 88.4521L69.5539 86.1042H42.1791L40.6849 88.4521C40.3114 89.1992 39.8311 89.466 38.9773 89.466H37.4298C35.989 89.466 35.4021 88.0786 36.1491 86.9046L41.7522 77.8864C36.2559 77.673 33.1609 75.1116 33.1609 69.6153ZM47.4086 30.4474C47.4086 31.4613 48.209 32.2618 49.2229 32.2618H62.6168C63.6307 32.2618 64.4311 31.4613 64.4311 30.4474C64.4311 29.3802 63.6307 28.6865 62.6168 28.6865H49.2229C48.209 28.6865 47.4086 29.3802 47.4086 30.4474ZM39.1908 56.9684C39.1908 58.5159 39.9912 59.5832 41.5921 59.7433C44.3669 60.0634 49.7565 60.3836 55.9465 60.437C60.9092 60.437 66.2988 60.2235 70.2476 59.7433C71.8484 59.5832 72.6489 58.5159 72.6489 56.9684V50.7251C72.6489 45.5489 72.0085 41.2266 71.635 39.4123C71.3682 38.1316 70.5677 37.2778 69.3404 37.1711C66.4588 36.8509 62.7235 36.5307 55.9465 36.5841C49.1161 36.5841 45.3808 36.8509 42.4459 37.1711C41.2185 37.2778 40.4715 38.1316 40.2047 39.4123C39.8311 41.2266 39.1908 45.5489 39.1908 50.7251V56.9684ZM64.5378 68.548C64.5378 70.6292 66.0853 72.1767 68.1664 72.1767C70.1408 72.1767 71.7951 70.6292 71.7951 68.548C71.7951 66.4669 70.1942 64.9194 68.1664 64.9194C66.0853 64.9194 64.5378 66.4669 64.5378 68.548ZM40.0979 68.548C40.0979 70.6825 41.5921 72.1767 43.6732 72.1767C45.701 72.1767 47.2485 70.6825 47.2485 68.548C47.2485 66.4669 45.7543 64.9194 43.6732 64.9194C41.5921 64.9194 40.0979 66.4669 40.0979 68.548ZM44.7938 81.8352H66.9391L64.5378 77.9398H47.2485L44.7938 81.8352Z" fill="url(#paint0_linear_43_489)"/>
<defs>
<linearGradient id="paint0_linear_43_489" x1="5.29831" y1="1.33329" x2="111.175" y2="111.684" gradientUnits="userSpaceOnUse">
<stop stop-color="#A6653F"/>
<stop offset="1" stop-color="#400601"/>
</linearGradient>
</defs>
</svg>
